<svg xmlns="http://www.w3.org/2000/svg" xmlns:xlink="http://www.w3.org/1999/xlink" width="40" zoomAndPan="magnify" viewBox="0 0 30 30.000001" height="40" preserveAspectRatio="xMidYMid meet" version="1.0"><defs><g/></defs><g fill="#000000" fill-opacity="1"><g transform="translate(1.765592, 22.997904)"><g><path d="M 11.328125 0 L 9.5625 0 L 9.5625 -13.953125 L 6.59375 -5.3125 L 5.34375 -5.3125 L 2.390625 -13.953125 L 2.390625 0 L 0.625 0 L 0.625 -16.75 L 2.90625 -16.75 L 5.96875 -8 L 9.046875 -16.75 L 11.328125 -16.75 Z M 11.328125 0 "/></g></g></g><g fill="#fcd34d" fill-opacity="1"><g transform="translate(16.099353, 22.997904)"><g><path d="M 11.53125 -4.359375 C 11.53125 -3.660156 11.382812 -3.023438 11.09375 -2.453125 C 10.800781 -1.890625 10.410156 -1.398438 9.921875 -0.984375 C 9.441406 -0.578125 8.882812 -0.257812 8.25 -0.03125 C 7.613281 0.1875 6.957031 0.296875 6.28125 0.296875 C 5.332031 0.296875 4.460938 0.125 3.671875 -0.21875 C 2.890625 -0.570312 2.269531 -1.09375 1.8125 -1.78125 L 1.8125 0 L 0.328125 0 L 0.328125 -5.09375 L 1.8125 -5.09375 C 1.8125 -4.519531 1.941406 -3.992188 2.203125 -3.515625 C 2.472656 -3.046875 2.8125 -2.640625 3.21875 -2.296875 C 3.632812 -1.953125 4.109375 -1.679688 4.640625 -1.484375 C 5.171875 -1.296875 5.71875 -1.203125 6.28125 -1.203125 C 6.769531 -1.203125 7.222656 -1.269531 7.640625 -1.40625 C 8.066406 -1.550781 8.4375 -1.753906 8.75 -2.015625 C 9.070312 -2.273438 9.320312 -2.59375 9.5 -2.96875 C 9.6875 -3.351562 9.78125 -3.785156 9.78125 -4.265625 C 9.78125 -4.796875 9.660156 -5.253906 9.421875 -5.640625 C 9.191406 -6.023438 8.875 -6.351562 8.46875 -6.625 C 8.070312 -6.90625 7.625 -7.140625 7.125 -7.328125 C 6.632812 -7.523438 6.132812 -7.71875 5.625 -7.90625 C 5.007812 -8.113281 4.398438 -8.335938 3.796875 -8.578125 C 3.191406 -8.816406 2.648438 -9.113281 2.171875 -9.46875 C 1.691406 -9.832031 1.300781 -10.269531 1 -10.78125 C 0.695312 -11.300781 0.546875 -11.945312 0.546875 -12.71875 C 0.546875 -13.40625 0.691406 -14.015625 0.984375 -14.546875 C 1.273438 -15.078125 1.65625 -15.523438 2.125 -15.890625 C 2.601562 -16.265625 3.148438 -16.546875 3.765625 -16.734375 C 4.390625 -16.929688 5.035156 -17.03125 5.703125 -17.03125 C 6.515625 -17.03125 7.265625 -16.863281 7.953125 -16.53125 C 8.640625 -16.195312 9.175781 -15.6875 9.5625 -15 L 9.5625 -16.75 L 11.109375 -16.75 L 11.109375 -11.953125 L 9.5625 -11.953125 C 9.5625 -12.460938 9.457031 -12.9375 9.25 -13.375 C 9.039062 -13.8125 8.753906 -14.1875 8.390625 -14.5 C 8.035156 -14.8125 7.625 -15.0625 7.15625 -15.25 C 6.695312 -15.4375 6.210938 -15.53125 5.703125 -15.53125 C 5.242188 -15.53125 4.804688 -15.476562 4.390625 -15.375 C 3.984375 -15.269531 3.625 -15.101562 3.3125 -14.875 C 3.007812 -14.65625 2.765625 -14.363281 2.578125 -14 C 2.398438 -13.644531 2.3125 -13.21875 2.3125 -12.71875 C 2.3125 -12.28125 2.421875 -11.90625 2.640625 -11.59375 C 2.859375 -11.289062 3.148438 -11.019531 3.515625 -10.78125 C 3.878906 -10.550781 4.300781 -10.335938 4.78125 -10.140625 C 5.269531 -9.953125 5.769531 -9.757812 6.28125 -9.5625 C 6.90625 -9.34375 7.53125 -9.09375 8.15625 -8.8125 C 8.78125 -8.539062 9.34375 -8.210938 9.84375 -7.828125 C 10.34375 -7.441406 10.75 -6.96875 11.0625 -6.40625 C 11.375 -5.84375 11.53125 -5.160156 11.53125 -4.359375 Z M 11.53125 -4.359375 "/></g></g></g></svg>