<svg xmlns="http://www.w3.org/2000/svg" xmlns:xlink="http://www.w3.org/1999/xlink" width="500" zoomAndPan="magnify" viewBox="0 0 375 374.999991" height="500" preserveAspectRatio="xMidYMid meet" version="1.0"><defs><g/></defs><rect x="-37.5" width="450" fill="#ffffff" y="-37.499999" height="449.999989" fill-opacity="1"/><rect x="-37.5" width="450" fill="#ffffff" y="-37.499999" height="449.999989" fill-opacity="1"/><rect x="-37.5" width="450" fill="#ffffff" y="-37.499999" height="449.999989" fill-opacity="1"/><g fill="#fcd34d" fill-opacity="1"><g transform="translate(61.984963, 175.01155)"><g><path d="M 11.289062 -13.738281 C 15.070312 -12.835938 17.644531 -11.847656 19.019531 -10.734375 C 19.960938 -9.960938 20.433594 -8.972656 20.433594 -7.769531 C 20.433594 -6.566406 20.175781 -5.582031 19.660156 -4.894531 C 18.375 -3.089844 16.054688 -2.1875 12.792969 -2.1875 C 8.242188 -2.1875 5.667969 -3.734375 5.109375 -6.824219 L 1.589844 -6.824219 C 2.617188 -1.890625 6.355469 0.558594 12.792969 0.558594 C 15.667969 0.558594 18.074219 -0.0429688 20.003906 -1.332031 C 22.324219 -2.832031 23.527344 -5.066406 23.527344 -7.984375 C 23.527344 -10.390625 22.582031 -12.234375 20.691406 -13.523438 C 19.363281 -14.46875 17.214844 -15.324219 14.253906 -16.097656 C 11.246094 -16.871094 9.316406 -17.515625 8.414062 -17.988281 C 6.441406 -18.976562 5.453125 -20.347656 5.496094 -22.152344 C 5.496094 -23.097656 5.667969 -23.910156 6.097656 -24.511719 C 7.210938 -26.1875 9.1875 -27.046875 12.019531 -27.046875 C 16.011719 -27.046875 18.289062 -25.757812 18.890625 -23.269531 L 22.152344 -23.269531 C 21.078125 -27.476562 17.6875 -29.621094 12.019531 -29.621094 C 9.445312 -29.621094 7.167969 -28.933594 5.28125 -27.5625 C 3.347656 -26.1875 2.359375 -24.167969 2.359375 -21.421875 C 2.359375 -17.6875 5.367188 -15.113281 11.289062 -13.738281 Z M 11.289062 -13.738281 "/></g></g></g><g fill="#fcd34d" fill-opacity="1"><g transform="translate(95.211428, 175.01155)"><g><path d="M 24.339844 -9.660156 L 24.339844 -29.191406 L 21.335938 -29.191406 L 21.335938 -9.230469 C 21.335938 -8.027344 21.121094 -7.039062 20.691406 -6.226562 C 19.449219 -3.820312 17.042969 -2.617188 13.480469 -2.617188 C 11.160156 -2.617188 9.316406 -3.132812 7.941406 -4.164062 C 6.355469 -5.324219 5.582031 -6.996094 5.582031 -9.230469 L 5.582031 -29.191406 L 2.574219 -29.191406 L 2.574219 -9.660156 C 2.574219 -6.484375 3.605469 -3.992188 5.667969 -2.1875 C 7.597656 -0.472656 10.21875 0.386719 13.480469 0.386719 C 16.699219 0.386719 19.277344 -0.472656 21.25 -2.1875 C 23.3125 -3.992188 24.339844 -6.484375 24.339844 -9.660156 Z M 24.339844 -9.660156 "/></g></g></g><g fill="#fcd34d" fill-opacity="1"><g transform="translate(130.712956, 175.01155)"><g><path d="M 6.226562 -3.003906 L 6.226562 -29.191406 L 3.21875 -29.191406 L 3.21875 0 L 16.65625 0 L 16.65625 -3.003906 Z M 6.226562 -3.003906 "/></g></g></g><g fill="#fcd34d" fill-opacity="1"><g transform="translate(156.813757, 175.01155)"><g><path d="M 7.941406 -10.734375 L 13.265625 -24.167969 L 18.546875 -10.734375 Z M 26.058594 0 L 13.265625 -31.210938 L 0.429688 0 L 3.691406 0 L 6.824219 -7.941406 L 19.660156 -7.941406 L 22.796875 0 Z M 26.058594 0 "/></g></g></g><g fill="#000000" fill-opacity="1"><g transform="translate(191.875584, 175.01155)"><g><path d="M 6.226562 0 L 6.226562 -29.191406 L 3.21875 -29.191406 L 3.21875 0 Z M 6.226562 0 "/></g></g></g><g fill="#000000" fill-opacity="1"><g transform="translate(209.906346, 175.01155)"><g><path d="M 30.136719 0 L 33.183594 0 L 26.402344 -31.125 L 16.828125 -6.140625 L 7.253906 -31.125 L 0.429688 0 L 3.519531 0 L 8.027344 -20.777344 L 16.828125 1.71875 L 25.585938 -20.777344 Z M 30.136719 0 "/></g></g></g><g fill="#000000" fill-opacity="1"><g transform="translate(252.104291, 175.01155)"><g><path d="M 7.941406 -10.734375 L 13.265625 -24.167969 L 18.546875 -10.734375 Z M 26.058594 0 L 13.265625 -31.210938 L 0.429688 0 L 3.691406 0 L 6.824219 -7.941406 L 19.660156 -7.941406 L 22.796875 0 Z M 26.058594 0 "/></g></g></g><g fill="#000000" fill-opacity="1"><g transform="translate(287.176562, 175.01155)"><g><path d="M 6.226562 -21.507812 L 22.625 1.804688 L 22.625 -29.191406 L 19.617188 -29.191406 L 19.617188 -7.726562 L 3.21875 -31.039062 L 3.21875 0 L 6.226562 0 Z M 6.226562 -21.507812 "/></g></g></g><g fill="#000000" fill-opacity="1"><g transform="translate(53.531178, 216.911484)"><g><path d="M 6.96875 -3.839844 L 6.96875 -15.539062 L 5.371094 -15.539062 L 5.371094 -3.839844 C 5.371094 -2.855469 4.980469 -2.171875 4.25 -1.757812 C 3.632812 -1.394531 2.878906 -1.28125 1.988281 -1.394531 C 1.164062 -1.484375 0.527344 -1.714844 0.113281 -2.078125 L 0.113281 -0.320312 C 0.25 -0.183594 0.527344 -0.0703125 0.9375 0.046875 C 1.347656 0.160156 1.804688 0.230469 2.308594 0.230469 C 3.542969 0.273438 4.570312 0.0234375 5.394531 -0.546875 C 6.445312 -1.234375 6.96875 -2.332031 6.96875 -3.839844 Z M 6.96875 -3.839844 "/></g></g></g><g fill="#000000" fill-opacity="1"><g transform="translate(66.44259, 216.911484)"><g><path d="M 6.878906 -7.976562 L 6.878906 -10.054688 C 6.558594 -10.191406 6.214844 -10.261719 5.875 -10.261719 C 4.730469 -10.261719 3.90625 -9.621094 3.382812 -8.386719 L 3.3125 -7.976562 L 3.3125 -10.054688 L 1.714844 -10.054688 L 1.714844 0 L 3.3125 0 L 3.3125 -5.027344 C 3.3125 -5.851562 3.496094 -6.582031 3.886719 -7.246094 C 4.066406 -7.585938 4.320312 -7.882812 4.617188 -8.113281 C 4.914062 -8.339844 5.277344 -8.476562 5.691406 -8.476562 C 6.101562 -8.476562 6.488281 -8.296875 6.878906 -7.976562 Z M 6.878906 -7.976562 "/></g></g></g><g fill="#000000" fill-opacity="1"><g transform="translate(78.120021, 216.911484)"><g><path d="M 3.039062 0.230469 C 3.382812 0.230469 3.703125 0.113281 3.976562 -0.136719 C 4.25 -0.386719 4.386719 -0.6875 4.386719 -1.050781 C 4.386719 -1.417969 4.25 -1.714844 3.976562 -1.964844 C 3.703125 -2.214844 3.40625 -2.355469 3.039062 -2.355469 C 2.671875 -2.355469 2.355469 -2.214844 2.101562 -1.964844 C 1.828125 -1.691406 1.714844 -1.394531 1.714844 -1.050781 C 1.714844 -0.6875 1.828125 -0.386719 2.101562 -0.136719 C 2.375 0.113281 2.671875 0.230469 3.039062 0.230469 Z M 3.039062 0.230469 "/></g></g></g><g fill="#000000" fill-opacity="1"><g transform="translate(88.791985, 216.911484)"><g/></g></g><g fill="#000000" fill-opacity="1"><g transform="translate(99.532499, 216.911484)"><g><path d="M 16.042969 0 L 17.664062 0 L 14.054688 -16.566406 L 8.957031 -3.269531 L 3.863281 -16.566406 L 0.230469 0 L 1.875 0 L 4.273438 -11.0625 L 8.957031 0.914062 L 13.621094 -11.0625 Z M 16.042969 0 "/></g></g></g><g fill="#000000" fill-opacity="1"><g transform="translate(121.995848, 216.911484)"><g><path d="M 10.945312 0 L 10.945312 -1.484375 L 3.3125 -1.484375 L 3.3125 -7.015625 L 10.71875 -7.015625 L 10.71875 -8.523438 L 3.3125 -8.523438 L 3.3125 -14.054688 L 10.945312 -14.054688 L 10.945312 -15.539062 L 1.714844 -15.539062 L 1.714844 0 Z M 10.945312 0 "/></g></g></g><g fill="#000000" fill-opacity="1"><g transform="translate(139.226191, 216.911484)"><g><path d="M 3.3125 -7.679688 L 3.3125 -14.007812 L 6.925781 -14.007812 C 7.859375 -14.007812 8.617188 -13.710938 9.1875 -13.117188 C 9.734375 -12.523438 10.03125 -11.792969 10.03125 -10.878906 C 10.03125 -9.964844 9.734375 -9.210938 9.140625 -8.59375 C 8.546875 -7.976562 7.816406 -7.679688 6.925781 -7.679688 Z M 11.632812 -10.855469 C 11.632812 -12.179688 11.128906 -13.324219 10.167969 -14.214844 C 9.230469 -15.082031 8.066406 -15.539062 6.695312 -15.539062 L 1.714844 -15.539062 L 1.714844 0 L 3.3125 0 L 3.3125 -6.148438 L 5.164062 -6.148438 L 9.734375 0 L 11.882812 0 L 7.085938 -6.148438 C 8.296875 -6.214844 9.324219 -6.648438 10.167969 -7.449219 C 11.128906 -8.339844 11.632812 -9.484375 11.632812 -10.855469 Z M 11.632812 -10.855469 "/></g></g></g><g fill="#000000" fill-opacity="1"><g transform="translate(156.228025, 216.911484)"><g><path d="M 3.3125 -11.449219 L 12.042969 0.960938 L 12.042969 -15.539062 L 10.445312 -15.539062 L 10.445312 -4.113281 L 1.714844 -16.523438 L 1.714844 0 L 3.3125 0 Z M 3.3125 -11.449219 "/></g></g></g><g fill="#000000" fill-opacity="1"><g transform="translate(174.555256, 216.911484)"><g/></g></g><g fill="#000000" fill-opacity="1"><g transform="translate(185.295776, 216.911484)"><g><path d="M 13.78125 -7.769531 C 13.78125 -8.890625 13.550781 -9.917969 13.140625 -10.878906 C 12.730469 -11.835938 12.15625 -12.660156 11.449219 -13.347656 C 10.71875 -14.03125 9.871094 -14.558594 8.914062 -14.945312 C 7.929688 -15.335938 6.878906 -15.539062 5.78125 -15.539062 L 1.714844 -15.539062 L 1.714844 0 L 5.78125 0 C 6.878906 0 7.929688 -0.183594 8.914062 -0.570312 C 9.871094 -0.960938 10.71875 -1.507812 11.449219 -2.195312 C 12.15625 -2.878906 12.730469 -3.679688 13.140625 -4.640625 C 13.550781 -5.597656 13.78125 -6.628906 13.78125 -7.769531 Z M 12.226562 -7.769531 C 12.226562 -5.988281 11.585938 -4.5 10.351562 -3.335938 C 9.117188 -2.171875 7.609375 -1.601562 5.828125 -1.601562 L 3.3125 -1.601562 L 3.3125 -13.941406 L 5.828125 -13.941406 C 7.609375 -13.941406 9.117188 -13.347656 10.351562 -12.203125 C 11.585938 -11.015625 12.226562 -9.53125 12.226562 -7.769531 Z M 12.226562 -7.769531 "/></g></g></g><g fill="#000000" fill-opacity="1"><g transform="translate(204.674159, 216.911484)"><g><path d="M 11.539062 -5.257812 C 11.539062 -6.628906 10.992188 -7.816406 9.941406 -8.84375 C 8.914062 -9.828125 7.679688 -10.328125 6.285156 -10.328125 C 4.820312 -10.328125 3.585938 -9.804688 2.558594 -8.773438 C 1.53125 -7.746094 1.027344 -6.511719 1.027344 -5.074219 C 1.027344 -3.609375 1.53125 -2.375 2.558594 -1.371094 C 3.039062 -0.890625 3.585938 -0.527344 4.226562 -0.25 C 4.867188 0.0234375 5.621094 0.160156 6.511719 0.160156 C 7.402344 0.160156 8.273438 -0.113281 9.140625 -0.664062 C 10.007812 -1.210938 10.648438 -1.988281 11.082031 -2.949219 L 9.253906 -2.949219 C 8.890625 -2.46875 8.457031 -2.101562 7.929688 -1.828125 C 7.402344 -1.554688 6.855469 -1.441406 6.285156 -1.441406 C 5.417969 -1.441406 4.640625 -1.714844 3.953125 -2.285156 C 3.269531 -2.832031 2.832031 -3.542969 2.695312 -4.410156 L 11.539062 -4.410156 Z M 9.847656 -5.78125 L 2.71875 -5.78125 C 2.8125 -6.191406 2.972656 -6.582031 3.199219 -6.945312 C 3.929688 -8.136719 4.960938 -8.730469 6.285156 -8.730469 C 7.128906 -8.730469 7.882812 -8.457031 8.546875 -7.90625 C 9.230469 -7.335938 9.644531 -6.628906 9.847656 -5.78125 Z M 9.847656 -5.78125 "/></g></g></g><g fill="#000000" fill-opacity="1"><g transform="translate(221.698846, 216.911484)"><g><path d="M 4.867188 0.960938 L 9.484375 -10.054688 L 7.746094 -10.054688 L 4.867188 -2.582031 L 1.964844 -10.054688 L 0.230469 -10.054688 Z M 4.867188 0.960938 "/></g></g></g><g fill="#000000" fill-opacity="1"><g transform="translate(235.981347, 216.911484)"><g><path d="M 11.539062 -5.257812 C 11.539062 -6.628906 10.992188 -7.816406 9.941406 -8.84375 C 8.914062 -9.828125 7.679688 -10.328125 6.285156 -10.328125 C 4.820312 -10.328125 3.585938 -9.804688 2.558594 -8.773438 C 1.53125 -7.746094 1.027344 -6.511719 1.027344 -5.074219 C 1.027344 -3.609375 1.53125 -2.375 2.558594 -1.371094 C 3.039062 -0.890625 3.585938 -0.527344 4.226562 -0.25 C 4.867188 0.0234375 5.621094 0.160156 6.511719 0.160156 C 7.402344 0.160156 8.273438 -0.113281 9.140625 -0.664062 C 10.007812 -1.210938 10.648438 -1.988281 11.082031 -2.949219 L 9.253906 -2.949219 C 8.890625 -2.46875 8.457031 -2.101562 7.929688 -1.828125 C 7.402344 -1.554688 6.855469 -1.441406 6.285156 -1.441406 C 5.417969 -1.441406 4.640625 -1.714844 3.953125 -2.285156 C 3.269531 -2.832031 2.832031 -3.542969 2.695312 -4.410156 L 11.539062 -4.410156 Z M 9.847656 -5.78125 L 2.71875 -5.78125 C 2.8125 -6.191406 2.972656 -6.582031 3.199219 -6.945312 C 3.929688 -8.136719 4.960938 -8.730469 6.285156 -8.730469 C 7.128906 -8.730469 7.882812 -8.457031 8.546875 -7.90625 C 9.230469 -7.335938 9.644531 -6.628906 9.847656 -5.78125 Z M 9.847656 -5.78125 "/></g></g></g><g fill="#000000" fill-opacity="1"><g transform="translate(253.006034, 216.911484)"><g><path d="M 3.3125 0 L 3.3125 -17.140625 L 1.714844 -17.140625 L 1.714844 0 Z M 3.3125 0 "/></g></g></g><g fill="#000000" fill-opacity="1"><g transform="translate(262.603964, 216.911484)"><g><path d="M 9.941406 -5.074219 C 9.941406 -4.066406 9.574219 -3.222656 8.867188 -2.515625 C 8.136719 -1.78125 7.289062 -1.441406 6.285156 -1.441406 C 5.277344 -1.441406 4.410156 -1.78125 3.703125 -2.515625 C 2.972656 -3.222656 2.628906 -4.066406 2.628906 -5.074219 C 2.628906 -6.078125 2.972656 -6.925781 3.703125 -7.65625 C 4.410156 -8.363281 5.277344 -8.730469 6.285156 -8.730469 C 7.289062 -8.730469 8.136719 -8.363281 8.867188 -7.65625 C 9.574219 -6.925781 9.941406 -6.078125 9.941406 -5.074219 Z M 11.539062 -5.074219 C 11.539062 -6.511719 11.015625 -7.746094 9.988281 -8.773438 C 8.957031 -9.804688 7.722656 -10.328125 6.285156 -10.328125 C 4.820312 -10.328125 3.585938 -9.804688 2.558594 -8.773438 C 1.53125 -7.746094 1.027344 -6.511719 1.027344 -5.074219 C 1.027344 -3.609375 1.53125 -2.375 2.558594 -1.371094 C 3.585938 -0.34375 4.84375 0.160156 6.285156 0.160156 C 7.703125 0.160156 8.957031 -0.34375 9.988281 -1.371094 C 11.015625 -2.375 11.539062 -3.609375 11.539062 -5.074219 Z M 11.539062 -5.074219 "/></g></g></g><g fill="#000000" fill-opacity="1"><g transform="translate(279.74291, 216.911484)"><g><path d="M 3.3125 5.714844 L 3.3125 -1.714844 C 3.382812 -1.578125 3.496094 -1.460938 3.585938 -1.371094 C 4.546875 -0.296875 5.714844 0.230469 7.105469 0.230469 C 8.476562 0.230469 9.644531 -0.296875 10.605469 -1.371094 C 11.519531 -2.398438 11.996094 -3.609375 11.996094 -5.027344 C 11.996094 -6.421875 11.519531 -7.632812 10.605469 -8.683594 C 9.644531 -9.734375 8.476562 -10.285156 7.105469 -10.285156 C 5.714844 -10.285156 4.546875 -9.734375 3.585938 -8.683594 C 3.496094 -8.570312 3.382812 -8.457031 3.3125 -8.316406 L 3.3125 -10.054688 L 1.714844 -10.054688 L 1.714844 5.714844 Z M 10.398438 -5.027344 C 10.398438 -4.042969 10.054688 -3.175781 9.371094 -2.46875 C 8.683594 -1.738281 7.839844 -1.371094 6.855469 -1.371094 C 5.851562 -1.371094 5.003906 -1.738281 4.320312 -2.46875 C 3.632812 -3.175781 3.3125 -4.042969 3.3125 -5.027344 C 3.3125 -5.988281 3.632812 -6.855469 4.320312 -7.585938 C 5.003906 -8.316406 5.851562 -8.683594 6.855469 -8.683594 C 7.839844 -8.683594 8.683594 -8.316406 9.371094 -7.585938 C 10.054688 -6.855469 10.398438 -5.988281 10.398438 -5.027344 Z M 10.398438 -5.027344 "/></g></g></g><g fill="#000000" fill-opacity="1"><g transform="translate(297.338887, 216.911484)"><g><path d="M 11.539062 -5.257812 C 11.539062 -6.628906 10.992188 -7.816406 9.941406 -8.84375 C 8.914062 -9.828125 7.679688 -10.328125 6.285156 -10.328125 C 4.820312 -10.328125 3.585938 -9.804688 2.558594 -8.773438 C 1.53125 -7.746094 1.027344 -6.511719 1.027344 -5.074219 C 1.027344 -3.609375 1.53125 -2.375 2.558594 -1.371094 C 3.039062 -0.890625 3.585938 -0.527344 4.226562 -0.25 C 4.867188 0.0234375 5.621094 0.160156 6.511719 0.160156 C 7.402344 0.160156 8.273438 -0.113281 9.140625 -0.664062 C 10.007812 -1.210938 10.648438 -1.988281 11.082031 -2.949219 L 9.253906 -2.949219 C 8.890625 -2.46875 8.457031 -2.101562 7.929688 -1.828125 C 7.402344 -1.554688 6.855469 -1.441406 6.285156 -1.441406 C 5.417969 -1.441406 4.640625 -1.714844 3.953125 -2.285156 C 3.269531 -2.832031 2.832031 -3.542969 2.695312 -4.410156 L 11.539062 -4.410156 Z M 9.847656 -5.78125 L 2.71875 -5.78125 C 2.8125 -6.191406 2.972656 -6.582031 3.199219 -6.945312 C 3.929688 -8.136719 4.960938 -8.730469 6.285156 -8.730469 C 7.128906 -8.730469 7.882812 -8.457031 8.546875 -7.90625 C 9.230469 -7.335938 9.644531 -6.628906 9.847656 -5.78125 Z M 9.847656 -5.78125 "/></g></g></g><g fill="#000000" fill-opacity="1"><g transform="translate(314.363575, 216.911484)"><g><path d="M 6.878906 -7.976562 L 6.878906 -10.054688 C 6.558594 -10.191406 6.214844 -10.261719 5.875 -10.261719 C 4.730469 -10.261719 3.90625 -9.621094 3.382812 -8.386719 L 3.3125 -7.976562 L 3.3125 -10.054688 L 1.714844 -10.054688 L 1.714844 0 L 3.3125 0 L 3.3125 -5.027344 C 3.3125 -5.851562 3.496094 -6.582031 3.886719 -7.246094 C 4.066406 -7.585938 4.320312 -7.882812 4.617188 -8.113281 C 4.914062 -8.339844 5.277344 -8.476562 5.691406 -8.476562 C 6.101562 -8.476562 6.488281 -8.296875 6.878906 -7.976562 Z M 6.878906 -7.976562 "/></g></g></g></svg>